<svg width="55" height="55" fill="none" xmlns="http://www.w3.org/2000/svg"><path d="M27.498 2.599c-2.812 0-5.62.425-8.334 1.276l-4.842 1.514a10.63 10.63 0 00-7.305 11.826l1.405 8.73a8.255 8.255 0 00-5.182 3.391c-.592.853-.795 1.923-.858 2.994-.063 1.07.035 2.138.232 2.991l2.103 9.088a3.942 3.942 0 003.832 3.048h1.65v4.117a.824.824 0 00.82.827h3.296a.825.825 0 00.688-.37l3.05-4.574h18.895l3.05 4.574c.152.23.41.37.687.37h3.295a.824.824 0 00.821-.827v-4.117h1.65a3.942 3.942 0 003.831-3.048l2.104-9.088c.197-.853.295-1.92.232-2.991-.063-1.071-.266-2.146-.858-2.999a8.243 8.243 0 00-5.189-3.387l1.412-8.73A10.63 10.63 0 0040.678 5.39l-4.842-1.514A27.866 27.866 0 0027.498 2.6zm.001 1.644c2.645 0 5.291.4 7.844 1.201l4.836 1.52a8.961 8.961 0 016.174 9.988l-1.423 8.84c-4.513.034-8.182 3.72-8.182 8.24 0 .59.064 1.164.182 1.719-6.416-1.158-12.929-1.107-18.855-.022a8.285 8.285 0 00.177-1.696c0-4.52-3.669-8.207-8.182-8.24l-1.422-8.84a8.961 8.961 0 016.173-9.988l4.836-1.52a26.2 26.2 0 017.842-1.202zm-.001 1.615c-2.241 0-4.48.337-6.644 1.015L17.03 8.08a8.582 8.582 0 00-5.9 9.543l.608 3.777c.074.45.498.755.948.68a.824.824 0 00.683-.942l-.609-3.777a6.917 6.917 0 014.762-7.712l3.826-1.2a20.561 20.561 0 0112.305 0l3.827 1.2a6.917 6.917 0 014.762 7.712l-.609 3.777a.824.824 0 00.683.943c.45.074.875-.23.948-.681l.608-3.777a8.582 8.582 0 00-5.9-9.543l-3.825-1.206a22.223 22.223 0 00-6.648-1.015zm-9.405 6.648a.824.824 0 00-.583 1.405l.586.584-.586.584a.824.824 0 001.167 1.162l.584-.584.584.584c.322.32.84.32 1.162 0a.824.824 0 000-1.162l-.584-.584.584-.584a.824.824 0 00-.584-1.405.825.825 0 00-.578.243l-.584.584-.584-.584a.824.824 0 00-.584-.243zm16.484 0a.824.824 0 00-.584 1.405l.584.584-.584.584a.824.824 0 000 1.162c.321.32.84.32 1.162 0l.584-.584.584.584a.824.824 0 001.167-1.162l-.586-.584.586-.584a.824.824 0 00-1.167-1.16l-.582.582-.586-.584a.823.823 0 00-.578-.243zm-8.241 4.945a.824.824 0 00-.584 1.405l.584.584-.584.584a.824.824 0 001.168 1.162l.58-.58.58.58a.824.824 0 001.169-1.162l-.585-.584.585-.584a.824.824 0 00-1.169-1.162l-.58.581-.58-.58a.824.824 0 00-.584-.244zm-6.594 6.594a.824.824 0 00-.584 1.405l.583.58-.583.582a.824.824 0 000 1.168.824.824 0 001.168 0l.583-.582.584.582a.824.824 0 001.162-1.168l-.58-.581.58-.581a.824.824 0 00-1.162-1.167l-.584.582-.583-.582a.823.823 0 00-.584-.238zm13.187 0a.823.823 0 00-.584 1.405l.58.58-.58.582a.824.824 0 001.162 1.168l.584-.582.583.582a.824.824 0 001.168 0 .824.824 0 000-1.168l-.583-.581.583-.581a.824.824 0 00-.584-1.405.823.823 0 00-.584.238l-.583.582-.584-.582a.825.825 0 00-.578-.238zm-22.92 3.394a6.582 6.582 0 016.257 8.661c-.542.121-1.084.25-1.627.39.195-1.304.125-2.703-.286-3.954-.565-1.716-1.98-3.204-4.1-3.211a4.9 4.9 0 00-3.807 1.819c-.501.617-.66 1.372-.724 2.11a7.492 7.492 0 00.11 2.056l1.446 7.237a.824.824 0 001.619-.322l-1.448-7.238a6.131 6.131 0 01-.086-1.594c.048-.555.218-1.036.36-1.21a3.247 3.247 0 012.524-1.21c1.418.007 2.112.792 2.537 2.08.38 1.157.377 2.682.073 3.926a57.08 57.08 0 00-1.266.386.824.824 0 00.505 1.57c.55-.176 1.098-.34 1.647-.496.011-.003.023-.008.035-.01a52.344 52.344 0 013.335-.828c8.704-1.862 17.28-1.326 25.797 1.334a.824.824 0 001.033-.54.824.824 0 00-.54-1.03 66.55 66.55 0 00-1.257-.376c-.306-1.246-.31-2.775.07-3.935.424-1.287 1.117-2.073 2.53-2.08 1.027 0 1.934.473 2.532 1.21.141.174.31.654.359 1.21a6.133 6.133 0 01-.086 1.593l-1.448 7.239c-.088.445.2.877.645.967a.824.824 0 00.974-.645l1.447-7.237c.118-.592.173-1.32.11-2.057-.064-.737-.224-1.492-.725-2.11a4.902 4.902 0 00-3.808-1.818c-2.12.007-3.534 1.495-4.099 3.21-.413 1.257-.481 2.663-.283 3.972a56.701 56.701 0 00-1.624-.386 6.582 6.582 0 016.25-8.682 6.565 6.565 0 015.413 2.833c.295.425.52 1.257.573 2.154a9.525 9.525 0 01-.195 2.525l-2.105 9.086a2.277 2.277 0 01-2.225 1.77H8.549a2.277 2.277 0 01-2.225-1.77l-2.105-9.086a9.527 9.527 0 01-.195-2.525c.053-.897.278-1.73.573-2.154a6.565 6.565 0 015.412-2.834zm1.838 20.018h4.221l-2.197 3.296h-2.024v-3.296zm27.078 0h4.228v3.296h-2.03l-2.197-3.296z" fill="#fff"/></svg>