<svg width="70" height="70" viewBox="0 0 70 70" fill="none" xmlns="http://www.w3.org/2000/svg">
<path d="M30.7891 43.3207C33.8357 41.5939 36.2251 38.9072 37.5845 35.6798C38.9439 32.4525 39.1969 28.8659 38.3039 25.4797C37.411 22.0935 35.4224 19.098 32.6483 16.9606C29.8742 14.8232 26.4707 13.6641 22.9688 13.6641C19.4668 13.6641 16.0633 14.8232 13.2892 16.9606C10.5151 19.098 8.52653 22.0935 7.63359 25.4797C6.74066 28.8659 6.99363 32.4525 8.35303 35.6798C9.71244 38.9072 12.1018 41.5939 15.1484 43.3207C9.50189 45.1208 4.65267 48.8203 1.42462 53.7906C1.18675 54.155 1.10339 54.599 1.19288 55.0249C1.28236 55.4508 1.53735 55.8236 1.90177 56.0615C2.26618 56.2994 2.71016 56.3827 3.13604 56.2933C3.56191 56.2038 3.9348 55.9488 4.17267 55.5844C6.2087 52.4539 8.99438 49.8815 12.2768 48.1008C15.5592 46.3201 19.2344 45.3874 22.9688 45.3874C26.7031 45.3874 30.3783 46.3201 33.6607 48.1008C36.9431 49.8815 39.7288 52.4539 41.7649 55.5844C42.0182 55.9091 42.3844 56.1266 42.7908 56.1938C43.1971 56.2609 43.6139 56.1728 43.9582 55.9469C44.3026 55.721 44.5494 55.3738 44.6496 54.9744C44.7499 54.5749 44.6962 54.1523 44.4992 53.7906C41.2746 48.8228 36.4306 45.1236 30.7891 43.3207ZM10.3906 29.5312C10.3906 27.0435 11.1283 24.6117 12.5104 22.5432C13.8925 20.4747 15.857 18.8626 18.1553 17.9106C20.4537 16.9586 22.9827 16.7095 25.4226 17.1948C27.8625 17.6801 30.1038 18.8781 31.8628 20.6372C33.6219 22.3962 34.8199 24.6375 35.3052 27.0774C35.7905 29.5173 35.5414 32.0463 34.5894 34.3447C33.6374 36.643 32.0253 38.6075 29.9568 39.9896C27.8883 41.3717 25.4565 42.1094 22.9688 42.1094C19.6342 42.105 16.4374 40.7784 14.0795 38.4205C11.7216 36.0626 10.395 32.8658 10.3906 29.5312ZM68.0859 56.0547C67.7218 56.2923 67.2783 56.3757 66.8527 56.2864C66.4272 56.1972 66.0545 55.9427 65.8164 55.5789C63.784 52.4481 61.0004 49.8757 57.7193 48.0962C54.4382 46.3167 50.7639 45.3865 47.0313 45.3906C46.5961 45.3906 46.1788 45.2178 45.8712 44.9101C45.5635 44.6024 45.3906 44.1851 45.3906 43.75C45.3906 43.3149 45.5635 42.8976 45.8712 42.5899C46.1788 42.2822 46.5961 42.1094 47.0313 42.1094C48.8835 42.1075 50.7124 41.6966 52.3874 40.906C54.0625 40.1154 55.5422 38.9646 56.7209 37.5358C57.8997 36.1071 58.7483 34.4357 59.2062 32.6409C59.6642 30.8462 59.7201 28.9725 59.37 27.1537C59.0198 25.3348 58.2724 23.6158 57.1809 22.1193C56.0894 20.6228 54.6809 19.3859 53.056 18.4968C51.4311 17.6078 49.6299 17.0885 47.7811 16.9763C45.9323 16.864 44.0815 17.1614 42.3609 17.8473C42.1606 17.9293 41.9459 17.9709 41.7294 17.9696C41.5129 17.9683 41.2988 17.9241 41.0994 17.8397C40.9 17.7552 40.7193 17.6321 40.5677 17.4775C40.4161 17.3229 40.2967 17.1398 40.2162 16.9388C40.1357 16.7377 40.0958 16.5228 40.0988 16.3063C40.1018 16.0898 40.1476 15.876 40.2336 15.6773C40.3196 15.4786 40.4441 15.2988 40.5999 15.1485C40.7557 14.9981 40.9398 14.8801 41.1414 14.8012C44.8734 13.3133 49.0309 13.2973 52.7742 14.7563C56.5175 16.2154 59.5675 19.0407 61.3082 22.6616C63.0489 26.2825 63.3504 30.4291 62.152 34.2638C60.9535 38.0985 58.3444 41.3354 54.8516 43.3207C60.4981 45.1208 65.3473 48.8203 68.5754 53.7906C68.81 54.156 68.8902 54.5994 68.7985 55.0238C68.7067 55.4482 68.4505 55.8189 68.0859 56.0547Z" fill="white"/>
</svg>
