<svg width="70" height="70" fill="none" xmlns="http://www.w3.org/2000/svg"><path d="M30.79 43.32a15.86 15.86 0 10-15.642 0A25.656 25.656 0 001.425 53.79a1.64 1.64 0 002.748 1.794 22.421 22.421 0 0137.592 0 1.64 1.64 0 002.734-1.793 25.656 25.656 0 00-13.71-10.47zm-20.4-13.789A12.578 12.578 0 1122.97 42.11a12.595 12.595 0 01-12.58-12.579zm57.696 26.524a1.64 1.64 0 01-2.27-.476A22.367 22.367 0 0047.031 45.39a1.64 1.64 0 110-3.282 12.578 12.578 0 10-4.67-24.262 1.641 1.641 0 11-1.22-3.046 15.86 15.86 0 0113.71 28.52 25.657 25.657 0 0113.724 10.47 1.641 1.641 0 01-.49 2.264z" fill="#fff"/></svg>