<svg width="120" height="88" viewBox="0 0 120 88" fill="none" xmlns="http://www.w3.org/2000/svg">
<circle cx="4" cy="4" r="4" fill="white" fill-opacity="0.44"/>
<circle cx="4" cy="36" r="4" fill="white" fill-opacity="0.44"/>
<circle cx="4" cy="68" r="4" fill="white" fill-opacity="0.44"/>
<circle cx="4" cy="20" r="4" fill="white" fill-opacity="0.44"/>
<circle cx="4" cy="52" r="4" fill="white" fill-opacity="0.44"/>
<circle cx="4" cy="84" r="4" fill="white" fill-opacity="0.44"/>
<circle cx="68" cy="4" r="4" fill="white" fill-opacity="0.44"/>
<circle cx="68" cy="36" r="4" fill="white" fill-opacity="0.44"/>
<circle cx="68" cy="68" r="4" fill="white" fill-opacity="0.44"/>
<circle cx="68" cy="20" r="4" fill="white" fill-opacity="0.44"/>
<circle cx="68" cy="52" r="4" fill="white" fill-opacity="0.44"/>
<circle cx="68" cy="84" r="4" fill="white" fill-opacity="0.44"/>
<circle cx="36" cy="4" r="4" fill="white" fill-opacity="0.44"/>
<circle cx="36" cy="36" r="4" fill="white" fill-opacity="0.44"/>
<circle cx="36" cy="68" r="4" fill="white" fill-opacity="0.44"/>
<circle cx="36" cy="20" r="4" fill="white" fill-opacity="0.44"/>
<circle cx="36" cy="52" r="4" fill="white" fill-opacity="0.44"/>
<circle cx="36" cy="84" r="4" fill="white" fill-opacity="0.44"/>
<circle cx="100" cy="4" r="4" fill="white" fill-opacity="0.44"/>
<circle cx="100" cy="36" r="4" fill="white" fill-opacity="0.44"/>
<circle cx="100" cy="68" r="4" fill="white" fill-opacity="0.44"/>
<circle cx="100" cy="20" r="4" fill="white" fill-opacity="0.44"/>
<circle cx="100" cy="52" r="4" fill="white" fill-opacity="0.44"/>
<circle cx="100" cy="84" r="4" fill="white" fill-opacity="0.44"/>
<circle cx="20" cy="4" r="4" fill="white" fill-opacity="0.44"/>
<circle cx="20" cy="36" r="4" fill="white" fill-opacity="0.44"/>
<circle cx="20" cy="68" r="4" fill="white" fill-opacity="0.44"/>
<circle cx="20" cy="20" r="4" fill="white" fill-opacity="0.44"/>
<circle cx="20" cy="52" r="4" fill="white" fill-opacity="0.44"/>
<circle cx="20" cy="84" r="4" fill="white" fill-opacity="0.44"/>
<circle cx="84" cy="4" r="4" fill="white" fill-opacity="0.44"/>
<circle cx="84" cy="36" r="4" fill="white" fill-opacity="0.44"/>
<circle cx="84" cy="68" r="4" fill="white" fill-opacity="0.44"/>
<circle cx="84" cy="20" r="4" fill="white" fill-opacity="0.44"/>
<circle cx="84" cy="52" r="4" fill="white" fill-opacity="0.44"/>
<circle cx="84" cy="84" r="4" fill="white" fill-opacity="0.44"/>
<circle cx="52" cy="4" r="4" fill="white" fill-opacity="0.44"/>
<circle cx="52" cy="36" r="4" fill="white" fill-opacity="0.44"/>
<circle cx="52" cy="68" r="4" fill="white" fill-opacity="0.44"/>
<circle cx="52" cy="20" r="4" fill="white" fill-opacity="0.44"/>
<circle cx="52" cy="52" r="4" fill="white" fill-opacity="0.44"/>
<circle cx="52" cy="84" r="4" fill="white" fill-opacity="0.44"/>
<circle cx="116" cy="4" r="4" fill="white" fill-opacity="0.44"/>
<circle cx="116" cy="36" r="4" fill="white" fill-opacity="0.44"/>
<circle cx="116" cy="68" r="4" fill="white" fill-opacity="0.44"/>
<circle cx="116" cy="20" r="4" fill="white" fill-opacity="0.44"/>
<circle cx="116" cy="52" r="4" fill="white" fill-opacity="0.44"/>
<circle cx="116" cy="84" r="4" fill="white" fill-opacity="0.44"/>
</svg>
