<svg width="88" height="120" viewBox="0 0 88 120" fill="none" xmlns="http://www.w3.org/2000/svg">
<circle cx="84" cy="4" r="4" transform="rotate(90 84 4)" fill="white" fill-opacity="0.44"/>
<circle cx="52" cy="4" r="4" transform="rotate(90 52 4)" fill="white" fill-opacity="0.44"/>
<circle cx="20" cy="4" r="4" transform="rotate(90 20 4)" fill="white" fill-opacity="0.44"/>
<circle cx="68" cy="4" r="4" transform="rotate(90 68 4)" fill="white" fill-opacity="0.44"/>
<circle cx="36" cy="4" r="4" transform="rotate(90 36 4)" fill="white" fill-opacity="0.44"/>
<circle cx="4" cy="4" r="4" transform="rotate(90 4 4)" fill="white" fill-opacity="0.44"/>
<circle cx="84" cy="68" r="4" transform="rotate(90 84 68)" fill="white" fill-opacity="0.44"/>
<circle cx="52" cy="68" r="4" transform="rotate(90 52 68)" fill="white" fill-opacity="0.44"/>
<circle cx="20" cy="68" r="4" transform="rotate(90 20 68)" fill="white" fill-opacity="0.44"/>
<circle cx="68" cy="68" r="4" transform="rotate(90 68 68)" fill="white" fill-opacity="0.44"/>
<circle cx="36" cy="68" r="4" transform="rotate(90 36 68)" fill="white" fill-opacity="0.44"/>
<circle cx="4" cy="68" r="4" transform="rotate(90 4 68)" fill="white" fill-opacity="0.44"/>
<circle cx="84" cy="36" r="4" transform="rotate(90 84 36)" fill="white" fill-opacity="0.44"/>
<circle cx="52" cy="36" r="4" transform="rotate(90 52 36)" fill="white" fill-opacity="0.44"/>
<circle cx="20" cy="36" r="4" transform="rotate(90 20 36)" fill="white" fill-opacity="0.44"/>
<circle cx="68" cy="36" r="4" transform="rotate(90 68 36)" fill="white" fill-opacity="0.44"/>
<circle cx="36" cy="36" r="4" transform="rotate(90 36 36)" fill="white" fill-opacity="0.44"/>
<circle cx="4" cy="36" r="4" transform="rotate(90 4 36)" fill="white" fill-opacity="0.44"/>
<circle cx="84" cy="100" r="4" transform="rotate(90 84 100)" fill="white" fill-opacity="0.44"/>
<circle cx="52" cy="100" r="4" transform="rotate(90 52 100)" fill="white" fill-opacity="0.44"/>
<circle cx="20" cy="100" r="4" transform="rotate(90 20 100)" fill="white" fill-opacity="0.44"/>
<circle cx="68" cy="100" r="4" transform="rotate(90 68 100)" fill="white" fill-opacity="0.44"/>
<circle cx="36" cy="100" r="4" transform="rotate(90 36 100)" fill="white" fill-opacity="0.44"/>
<circle cx="4" cy="100" r="4" transform="rotate(90 4 100)" fill="white" fill-opacity="0.44"/>
<circle cx="84" cy="20" r="4" transform="rotate(90 84 20)" fill="white" fill-opacity="0.44"/>
<circle cx="52" cy="20" r="4" transform="rotate(90 52 20)" fill="white" fill-opacity="0.44"/>
<circle cx="20" cy="20" r="4" transform="rotate(90 20 20)" fill="white" fill-opacity="0.44"/>
<circle cx="68" cy="20" r="4" transform="rotate(90 68 20)" fill="white" fill-opacity="0.44"/>
<circle cx="36" cy="20" r="4" transform="rotate(90 36 20)" fill="white" fill-opacity="0.44"/>
<circle cx="4" cy="20" r="4" transform="rotate(90 4 20)" fill="white" fill-opacity="0.44"/>
<circle cx="84" cy="84" r="4" transform="rotate(90 84 84)" fill="white" fill-opacity="0.44"/>
<circle cx="52" cy="84" r="4" transform="rotate(90 52 84)" fill="white" fill-opacity="0.44"/>
<circle cx="20" cy="84" r="4" transform="rotate(90 20 84)" fill="white" fill-opacity="0.44"/>
<circle cx="68" cy="84" r="4" transform="rotate(90 68 84)" fill="white" fill-opacity="0.44"/>
<circle cx="36" cy="84" r="4" transform="rotate(90 36 84)" fill="white" fill-opacity="0.44"/>
<circle cx="4" cy="84" r="4" transform="rotate(90 4 84)" fill="white" fill-opacity="0.44"/>
<circle cx="84" cy="52" r="4" transform="rotate(90 84 52)" fill="white" fill-opacity="0.44"/>
<circle cx="52" cy="52" r="4" transform="rotate(90 52 52)" fill="white" fill-opacity="0.44"/>
<circle cx="20" cy="52" r="4" transform="rotate(90 20 52)" fill="white" fill-opacity="0.44"/>
<circle cx="68" cy="52" r="4" transform="rotate(90 68 52)" fill="white" fill-opacity="0.44"/>
<circle cx="36" cy="52" r="4" transform="rotate(90 36 52)" fill="white" fill-opacity="0.44"/>
<circle cx="4" cy="52" r="4" transform="rotate(90 4 52)" fill="white" fill-opacity="0.44"/>
<circle cx="84" cy="116" r="4" transform="rotate(90 84 116)" fill="white" fill-opacity="0.44"/>
<circle cx="52" cy="116" r="4" transform="rotate(90 52 116)" fill="white" fill-opacity="0.44"/>
<circle cx="20" cy="116" r="4" transform="rotate(90 20 116)" fill="white" fill-opacity="0.44"/>
<circle cx="68" cy="116" r="4" transform="rotate(90 68 116)" fill="white" fill-opacity="0.44"/>
<circle cx="36" cy="116" r="4" transform="rotate(90 36 116)" fill="white" fill-opacity="0.44"/>
<circle cx="4" cy="116" r="4" transform="rotate(90 4 116)" fill="white" fill-opacity="0.44"/>
</svg>
