<svg width="70" height="70" fill="none" xmlns="http://www.w3.org/2000/svg"><path d="M13.563 26.36l-2.079 3.609 23.407 26.687c.109.11.218.11.218 0L58.516 29.97l-5.907-10.172H23.625m-12.25 10.171h47.25M35 56.766l-10.828-24.61M35 56.219l10.5-24.063m-10.5 0V56.22" stroke="#fff" stroke-width="2" stroke-miterlimit="10"/><path d="M29.75 19.36l-6.234 8.53-1.641-2.187m19.141-6.343l-6.235 8.53-5.578-7.218m22.969-1.312l-6.125 8.53-5.578-7.218m-23.297-7.438v3.063m5.688.219l-2.626 1.53m2.626 5.032l-2.626-1.531m-3.062 4.813v-3.063m-5.688-.219l2.625-1.531m-2.625-5.031l2.625 1.53" stroke="#fff" stroke-width="2" stroke-miterlimit="10"/></svg>