<svg width="25" height="25" fill="none" xmlns="http://www.w3.org/2000/svg"><rect x=".5" y=".5" width="24" height="24" rx="12" fill="#010914" stroke="#fff"/><path d="M17.454 7.54a6.518 6.518 0 00-4.619-1.915c-3.612 0-6.54 2.917-6.54 6.517 0 1.14.32 2.279.87 3.236L6.25 18.75l3.476-.912c.96.502 2.012.775 3.11.775 3.612 0 6.539-2.916 6.539-6.517-.046-1.686-.686-3.326-1.92-4.557zm-1.463 6.926c-.137.365-.778.73-1.098.775-.274.046-.64.046-1.006-.046-.229-.09-.549-.182-.914-.364-1.647-.684-2.699-2.324-2.79-2.461-.091-.091-.686-.866-.686-1.686s.412-1.185.549-1.368c.137-.182.32-.182.457-.182h.32c.092 0 .229-.045.366.274.137.319.457 1.139.503 1.184a.29.29 0 010 .274c-.046.091-.091.182-.183.273-.091.091-.183.228-.229.274-.091.09-.182.182-.091.319.091.182.412.683.915 1.14.64.546 1.143.728 1.326.82.183.09.274.045.366-.046.091-.091.411-.456.503-.638.091-.182.228-.137.366-.091.137.045.96.455 1.097.546.183.092.275.137.32.183.046.137.046.456-.091.82z" fill="#fff"/></svg>