<svg width="25" height="25" fill="none" xmlns="http://www.w3.org/2000/svg"><rect x=".5" y=".5" width="24" height="24" rx="12" fill="#010914" stroke="#fff"/><path d="M13.114 16.875c-4.698 0-7.377-3.284-7.489-8.75h2.353c.078 4.011 1.812 5.71 3.187 6.061V8.125h2.215v3.46c1.357-.15 2.783-1.726 3.264-3.46h2.216a6.743 6.743 0 01-1.061 2.502 6.6 6.6 0 01-1.954 1.86 6.809 6.809 0 012.227 1.808 6.97 6.97 0 011.303 2.58h-2.44a4.338 4.338 0 00-1.314-2.11 4.203 4.203 0 00-2.24-1.017v3.127h-.267z" fill="#fff"/></svg>