<svg width="50" height="50" fill="none" xmlns="http://www.w3.org/2000/svg"><path d="M3.962 34.058v-5.933L0 17.495h1.994L4.906 25.7l3.363-9.92H10.1L5.786 28.19v5.87l-1.823-.002zm11.744 0h-1.53a5.937 5.937 0 01-.156-.93h-.112c-.513.652-1.174 1.092-2.199 1.092-1.66 0-2.8-1.254-2.8-3.548 0-2.5 1.28-4.077 4.55-4.077h.252v-.692c0-1.531-.513-2.181-1.53-2.181-.93 0-1.718.487-2.32 1.017l-.35-1.595c.537-.44 1.605-.927 2.783-.927 2.069 0 3.2.88 3.2 3.711v5.486c0 1.114.112 2.092.201 2.645l.011-.001zM13.72 27.97h-.212c-2.255 0-2.733.993-2.733 2.499 0 1.344.44 2.22 1.358 2.22.626 0 1.255-.414 1.58-.926l.007-3.793zm5.836 6.088H17.75V22.347h1.806v1.025h.113c.326-.44 1.206-1.156 2.295-1.156 1.53 0 2.336.854 2.336 2.637v9.205h-1.831v-9.042c0-.88-.39-1.188-1.09-1.188-.757 0-1.4.586-1.823 1.163v9.067zm6.533-5.395c0-4.338 1.62-6.446 3.956-6.446.561 0 1.14.188 1.49.44v-5.162h1.806v16.563h-1.344l-.145-.93h-.114c-.505.652-1.155 1.092-2.107 1.092-2.295 0-3.542-1.945-3.542-5.557zm5.447-4.411c-.367-.367-.764-.555-1.369-.555-1.456 0-2.156 2.206-2.156 4.589 0 2.736.512 4.402 1.839 4.402.905 0 1.383-.44 1.686-.902v-7.534zm7.51 9.968c-2.408 0-3.9-1.92-3.9-5.51 0-3.758 1.043-6.494 3.524-6.494 1.946 0 3.214 1.456 3.214 5.43v.992h-4.857c0 2.645.742 4.03 2.18 4.03 1.02 0 1.768-.457 2.224-.782l.424 1.383c-.742.576-1.653.951-2.81.951zm-1.994-7.072h2.987c0-1.993-.327-3.45-1.369-3.45-1.106 0-1.495 1.368-1.626 3.45h.008zm12.696-4.768l-2.173 5.469L50 34.059h-1.87l-1.818-4.818-1.756 4.819h-1.783l2.433-6.049-2.204-5.631h1.88l1.513 4.239 1.594-4.24h1.76z" fill="#fff"/></svg>